
<svg version="1.1" id="Capa_1" xmlns="http://www.w3.org/2000/svg" x="0px" y="0px" viewBox="0 0 489.2 489.2"><g>
	<path d="M488.038,218.8c-4.2-15.6-18.7-19.8-33.3-23.9c-20.8-6.2-54.1-15.6-91.5-53.1c-60.8-60.7-145.3-106.6-219.7-79.5
		c-4.7-35.1-34.9-62.3-71.3-62.3c-39.7,0-71.9,32.3-71.9,71.9c0,36.1,26.7,66,61.4,71.2c-28.4,74.8,17.6,160,77.9,220.3
		c37.4,37.4,47.4,71.6,53.1,91.5c9.7,34.3,25.6,34.3,31.2,34.3c15.6,0,29.1-13.5,67.6-54.1c0.1-0.1,0.2-0.2,0.2-0.2
		c53.5,42.5,110.2,16.4,136-9.1c29.9-29.5,44.5-89.5,7.4-133.2C481.938,247.8,492.137,237.3,488.038,218.8z M41.237,71.9
		c0-17.1,13.9-30.9,30.9-30.9c17.1,0,30.9,13.9,30.9,30.9c0,17.1-13.9,30.9-30.9,30.9C55.138,102.9,41.237,89,41.237,71.9z
		 M398.538,398.7c-20.6,21.1-54.1,22.6-77.2,6.7c25.1-24.9,59.6-59.1,84.2-83.5C424.137,344.6,417.137,379.6,398.538,398.7z
		 M230.037,439.3c-6.2-23.9-19.8-62.4-61.4-104c-28.8-28.8-117.6-128.8-51.2-207.5c2-1.6,6.2-5.6,6.5-5.8
		c79.1-71.8,181,18.7,209.1,47.9c42.6,41.6,81.1,54.1,104,61.4C428.737,239.6,238.337,431,230.037,439.3z"/></g><g></g><g></g><g></g><g></g><g></g><g></g><g></g><g></g><g></g><g></g><g></g><g></g><g></g><g></g><g></g></svg>
